<svg width="71" height="71" viewBox="0 0 71 71" fill="none" xmlns="http://www.w3.org/2000/svg">
<circle cx="35.0417" cy="35.0417" r="34.5417" fill="white" fill-opacity="0.58" stroke="white"/>
<path d="M36.8159 18.8028C36.8159 17.9744 36.1443 17.3028 35.3159 17.3028C34.4874 17.3028 33.8159 17.9744 33.8159 18.8028H36.8159ZM34.2552 54.0505C34.841 54.6363 35.7907 54.6363 36.3765 54.0505L45.9225 44.5046C46.5082 43.9188 46.5082 42.9691 45.9225 42.3833C45.3367 41.7975 44.3869 41.7975 43.8011 42.3833L35.3159 50.8686L26.8306 42.3833C26.2448 41.7975 25.295 41.7975 24.7093 42.3833C24.1235 42.9691 24.1235 43.9188 24.7093 44.5046L34.2552 54.0505ZM33.8159 18.8028L33.8159 52.9899H36.8159L36.8159 18.8028H33.8159Z" fill="black"/>
</svg>
