<svg width="29" height="29" viewBox="0 0 29 29" fill="none" xmlns="http://www.w3.org/2000/svg">
<path d="M25.0931 26.8274C22.1616 29.7589 14.6542 27.0044 8.32491 20.6751C1.99559 14.3458 -0.758914 6.83841 2.17255 3.90692L4.10271 1.97677C5.4352 0.644284 7.63081 0.679506 9.00675 2.05545L11.9964 5.04508C13.3723 6.42102 13.4076 8.61664 12.0751 9.94913L11.6605 10.3637C10.9411 11.0831 10.8707 12.2437 11.5392 13.0538C12.184 13.8352 12.8791 14.6135 13.6328 15.3672C14.3865 16.1209 15.1648 16.8161 15.9462 17.4608C16.7563 18.1293 17.9169 18.0589 18.6363 17.3395L19.0509 16.9249C20.3834 15.5925 22.579 15.6277 23.9549 17.0036L26.9446 19.9932C28.3205 21.3692 28.3557 23.5648 27.0232 24.8973L25.0931 26.8274Z" stroke="black" stroke-width="2"/>
</svg>
