<svg width="27" height="27" viewBox="0 0 27 27" fill="none" xmlns="http://www.w3.org/2000/svg">
<path d="M0.0584542 3.22737C0.933134 15.4945 11.5055 26.0669 23.7726 26.9415C24.7236 27.0093 25.5463 26.3271 25.7333 25.3922L26.7004 20.5567C26.8773 19.6724 26.4404 18.779 25.6337 18.3757L22.14 16.6288C21.2755 16.1966 20.2255 16.4444 19.6456 17.2177L18.8647 18.2588C18.487 18.7624 17.8834 19.0758 17.2843 18.8823C14.1758 17.8784 9.12158 12.8242 8.1177 9.71569C7.92425 9.11664 8.23756 8.513 8.74118 8.13529L9.78232 7.35443C10.5556 6.77449 10.8034 5.72453 10.3712 4.86L8.62434 1.36632C8.22099 0.559634 7.32764 0.122708 6.44325 0.299585L1.60777 1.26668C0.672918 1.45365 -0.00935104 2.27642 0.0584542 3.22737Z" fill="black"/>
</svg>
