<svg width="46" height="53" viewBox="0 0 46 53" fill="none" xmlns="http://www.w3.org/2000/svg">
<path d="M7.76317 36.9981L2 40.6439V42.972L7.76317 39.3165V36.9981Z" fill="white"/>
<path d="M26.4414 25.1822L7.76317 36.9981V39.3165L28.2467 26.3243L26.4414 25.1822Z" fill="white"/>
<path d="M7.76317 47.3645V50L42.8282 27.8178L40.7452 26.5L7.76317 47.3645Z" fill="white"/>
<path d="M2 9.72056L7.76317 13.3664M26.4414 25.1822L7.76317 36.9981M26.4414 25.1822L7.76317 13.3664M26.4414 25.1822L28.2467 26.3243L7.76317 39.3165M2 40.6439V31.1121L11.3738 25.1822L2 19.2523V9.14953M2 40.6439L7.76317 36.9981M2 40.6439V42.972L7.76317 39.3165M7.76317 36.9981V39.3165M7.76317 47.3645V39.3165M7.76317 47.3645V50L42.8282 27.8178L40.7452 26.5M7.76317 47.3645L40.7452 26.5M7.76317 13.3664V3L42.8282 25.1822L40.7452 26.5" stroke="#973C2C" stroke-width="3"/>
</svg>
