<svg width="34" height="32" viewBox="0 0 34 32" fill="none" xmlns="http://www.w3.org/2000/svg">
<path d="M17.0692 0.0322266C8.01229 0.0322266 0.641581 7.13148 0.638387 15.8563C0.636258 18.6464 1.39419 21.3694 2.83129 23.7677L0.5 31.9677L9.21093 29.7674C11.634 31.0349 14.3282 31.696 17.0628 31.6941H17.0692C26.1261 31.6941 33.4968 24.5938 33.5 15.869C33.5021 11.6429 31.7946 7.66481 28.6916 4.67458C25.5896 1.68329 21.4646 0.0332911 17.0692 0.0322266ZM17.0692 29.0211H17.0639C14.6134 29.0211 12.2097 28.3867 10.1126 27.188L9.61226 26.9027L4.4451 28.2078L5.82471 23.3536L5.50003 22.8565C4.13628 20.7766 3.41032 18.3434 3.41145 15.8563C3.41464 8.60371 9.542 2.70523 17.0745 2.70523C20.7215 2.70629 24.1504 4.07632 26.7297 6.56197C29.309 9.04761 30.728 12.3529 30.7259 15.868C30.7227 23.1205 24.5964 29.0211 17.0681 29.0211H17.0692ZM24.5602 19.169C24.1493 18.9721 22.131 18.0151 21.7541 17.882C21.3784 17.7511 21.1048 17.683 20.8312 18.079C20.5587 18.475 19.7709 19.366 19.5325 19.6289C19.2919 19.8929 19.0524 19.9248 18.6415 19.7279C18.2306 19.5299 16.9074 19.1126 15.3404 17.7649C14.1194 16.7175 13.2955 15.423 13.056 15.0259C12.8165 14.631 13.0304 14.417 13.2359 14.2201C13.42 14.0445 13.6468 13.7592 13.8512 13.5282C14.0555 13.2972 14.1237 13.1322 14.2621 12.8682C14.3983 12.6052 14.3302 12.3732 14.2269 12.1762C14.1237 11.9772 13.304 10.0312 12.9602 9.24029C12.628 8.46958 12.2895 8.57284 12.0372 8.56007C11.7977 8.54942 11.5252 8.54623 11.2495 8.54623C10.978 8.54623 10.532 8.64523 10.1552 9.04123C9.77939 9.43723 8.71806 10.3932 8.71806 12.3391C8.71806 14.2861 10.1892 16.166 10.3947 16.43C10.6001 16.693 13.2902 20.6881 17.4088 22.402C18.3881 22.8076 19.1525 23.0513 19.7496 23.2344C20.7333 23.5357 21.6285 23.492 22.3354 23.3909C23.1231 23.277 24.7646 22.435 25.1052 21.512C25.448 20.5891 25.448 19.7971 25.3458 19.6321C25.2457 19.4671 24.9711 19.3681 24.5602 19.169V19.169Z" fill="black"/>
</svg>
